<svg xmlns="http://www.w3.org/2000/svg" width="295" height="279" viewBox="0 0 295 279">
<g>
<path d="M 213.29 67.05 C209.71,70.34 192.08,67.16 173.23,59.83 L 162.95 55.83 L 150.20 58.91 C143.18,60.61 135.17,62.00 132.41,62.00 L 127.37 62.00 L 127.33 56.97 C127.29,52.24 127.54,51.74 131.40,48.74 C133.65,46.99 135.73,45.25 136.00,44.88 C136.27,44.51 138.52,43.69 141.00,43.05 C143.48,42.41 149.03,40.74 153.34,39.33 C162.74,36.27 163.61,36.36 184.36,42.65 C192.69,45.17 200.51,47.46 201.74,47.73 C202.97,48.01 203.76,48.58 203.50,49.00 C202.87,50.02 204.88,51.57 208.00,52.49 C210.66,53.28 215.00,56.80 215.00,58.17 C215.00,58.63 214.32,59.00 213.50,59.00 C211.73,59.00 211.64,59.91 213.04,63.60 C213.61,65.10 213.72,66.65 213.29,67.05 Z" fill="rgb(9,203,241)"/>
<path d="M 165.10 214.28 C163.50,215.23 161.81,215.97 161.35,215.94 C158.78,215.76 145.91,207.61 139.13,201.86 C127.99,192.42 111.11,170.55 113.29,168.37 C113.59,168.07 115.50,168.62 117.54,169.58 C120.42,170.95 121.60,171.09 122.87,170.19 C123.77,169.55 125.93,168.39 127.67,167.60 C129.42,166.81 131.62,164.98 132.57,163.54 C134.09,161.22 134.14,160.42 132.97,156.70 C132.24,154.39 130.91,151.60 130.01,150.50 C125.83,145.40 123.64,140.00 125.76,140.00 C126.18,140.00 134.46,147.99 144.15,157.75 L 161.79 175.50 L 159.89 178.50 C155.58,185.32 154.68,188.31 155.97,191.50 C156.64,193.15 157.33,195.55 157.51,196.83 C157.69,198.12 158.55,199.95 159.42,200.91 C160.29,201.87 161.00,203.13 161.00,203.72 C161.00,204.30 162.57,206.03 164.50,207.57 C168.76,210.96 168.85,212.06 165.10,214.28 Z" fill="rgb(12,75,116)"/>
<path d="M 165.10 214.28 C168.85,212.06 168.76,210.96 164.50,207.57 C162.57,206.03 161.00,204.30 161.00,203.72 C161.00,203.13 160.29,201.87 159.42,200.91 C158.55,199.95 157.69,198.12 157.51,196.83 C157.33,195.55 156.64,193.15 155.97,191.50 C154.68,188.31 155.58,185.32 159.89,178.50 L 161.79 175.50 L 144.15 157.75 C138.44,152.00 133.23,146.87 129.81,143.62 C133.25,146.87 138.51,152.00 144.28,157.75 L 162.07 175.50 L 167.73 169.50 C185.04,151.15 190.34,145.95 191.36,146.30 C192.88,146.82 192.24,150.62 189.84,155.31 C188.04,158.85 187.55,166.43 189.17,165.77 C189.54,165.62 191.04,166.62 192.50,168.00 C194.80,170.16 196.18,170.53 202.73,170.70 C206.89,170.81 210.66,171.26 211.10,171.70 C212.71,173.31 200.34,189.52 189.86,199.54 C180.56,208.44 174.86,212.88 168.36,216.30 C165.54,217.78 163.04,219.00 162.81,219.00 C162.57,219.00 159.85,217.48 156.76,215.62 C152.47,213.03 146.49,208.31 140.61,203.08 C147.64,208.69 158.95,215.77 161.35,215.94 C161.81,215.97 163.50,215.23 165.10,214.28 ZM 130.50 193.41 C128.11,190.93 125.97,188.55 124.29,186.44 C122.91,184.71 121.60,182.98 120.39,181.31 C123.35,185.23 126.92,189.52 130.50,193.41 ZM 125.74 140.00 C124.79,140.01 124.73,141.15 125.34,142.86 C124.72,141.14 124.78,140.00 125.74,140.00 Z" fill="rgb(11,110,101)"/>
<path d="M 125.74 140.00 L 125.74 140.00 C124.78,140.00 124.72,141.14 125.34,142.86 L 125.34 142.86 C126.07,144.89 127.75,147.74 130.01,150.50 C130.91,151.60 132.24,154.39 132.97,156.70 C134.14,160.42 134.09,161.22 132.57,163.54 C131.62,164.98 129.42,166.81 127.67,167.60 C125.93,168.39 123.77,169.55 122.87,170.19 C121.60,171.09 120.42,170.95 117.54,169.58 C115.50,168.62 113.59,168.07 113.29,168.37 C112.87,168.79 113.16,169.93 113.96,171.57 C108.89,162.90 104.68,153.24 100.96,142.05 C97.33,131.14 93.47,113.20 94.52,112.15 C94.78,111.88 95.00,112.08 95.00,112.58 C95.00,113.09 97.69,113.46 100.98,113.41 C106.14,113.33 107.24,112.96 108.97,110.77 C111.86,107.09 115.70,106.40 119.13,108.94 C120.66,110.07 122.40,111.00 122.99,111.00 C123.59,111.00 126.40,112.33 129.24,113.95 C132.63,115.89 133.65,116.85 132.21,116.74 C130.99,116.65 130.00,116.27 130.00,115.90 C130.00,114.85 120.47,112.00 116.93,112.00 C112.03,112.00 106.49,113.99 105.08,116.25 C103.93,118.09 104.33,118.79 109.15,123.47 C111.28,125.53 118.74,132.84 127.66,141.59 C126.55,140.57 125.87,140.00 125.76,140.00 C125.75,140.00 125.75,140.00 125.74,140.00 ZM 130.50 193.41 C131.76,194.78 133.02,196.09 134.26,197.33 C128.38,191.61 123.29,185.66 118.82,179.20 C119.32,179.89 119.84,180.60 120.39,181.31 C121.60,182.98 122.91,184.71 124.29,186.44 C125.97,188.55 128.11,190.93 130.50,193.41 ZM 156.83 215.66 C159.89,217.50 162.57,219.00 162.81,219.00 C162.10,219.00 159.83,217.69 156.83,215.66 ZM 162.11 175.45 L 162.07 175.50 L 155.85 169.29 ZM 139.16 201.89 C139.62,202.28 140.11,202.68 140.61,203.08 C141.62,203.98 142.63,204.86 143.64,205.72 C142.77,205.01 141.92,204.30 141.11,203.60 C140.45,203.03 139.80,202.46 139.16,201.89 ZM 184.38 152.15 C182.05,154.48 179.02,157.61 175.10,161.72 C178.98,157.65 182.02,154.50 184.38,152.15 Z" fill="rgb(12,67,159)"/>
<path d="M 213.29 67.05 C213.72,66.65 213.61,65.10 213.04,63.60 C211.64,59.91 211.73,59.00 213.50,59.00 C214.32,59.00 215.00,58.63 215.00,58.17 C215.00,56.80 210.66,53.28 208.00,52.49 C204.88,51.57 202.87,50.02 203.50,49.00 C203.69,48.70 203.34,48.32 202.67,48.03 C206.17,49.04 209.39,49.95 211.88,50.64 C221.36,53.26 224.86,54.70 226.88,56.79 C228.32,58.29 230.62,60.25 232.00,61.14 L 234.50 62.75 L 232.24 67.41 C230.52,70.98 228.99,72.54 225.74,74.03 C223.41,75.10 217.90,78.90 213.50,82.46 C198.08,94.95 197.46,95.27 189.68,94.58 C185.50,94.21 183.09,94.34 183.45,94.92 C183.77,95.44 183.61,96.12 183.10,96.44 C182.59,96.75 182.02,96.60 181.84,96.11 C181.65,95.61 176.89,92.07 171.25,88.25 C165.27,84.20 159.75,79.58 158.00,77.15 C156.34,74.87 154.58,73.00 154.08,73.00 C153.57,73.00 152.16,71.31 150.93,69.25 C146.50,61.82 144.64,61.57 127.19,65.99 C113.19,69.54 107.06,70.48 103.57,69.61 C101.42,69.07 101.00,68.39 101.00,65.45 C101.00,63.25 101.56,61.72 102.50,61.36 C103.32,61.05 104.00,59.74 104.00,58.45 C104.00,57.17 104.46,55.84 105.02,55.49 C105.58,55.14 105.73,54.37 105.36,53.78 C104.95,53.11 105.16,52.98 105.89,53.43 C106.55,53.84 107.63,53.73 108.29,53.18 C108.96,52.64 111.53,51.68 114.00,51.04 C117.41,50.17 127.29,47.27 136.87,44.38 C136.40,44.58 136.09,44.76 136.00,44.88 C135.73,45.25 133.65,46.99 131.40,48.74 C127.54,51.74 127.29,52.24 127.33,56.97 L 127.37 62.00 L 132.41 62.00 C135.17,62.00 143.18,60.61 150.20,58.91 L 162.95 55.83 L 173.23 59.83 C192.08,67.16 209.71,70.34 213.29,67.05 ZM 163.82 37.41 C160.26,37.16 157.73,37.90 153.34,39.33 C150.31,40.32 146.66,41.44 143.90,42.24 C147.51,41.14 150.81,40.11 153.34,39.29 C157.73,37.89 160.26,37.16 163.82,37.41 ZM 200.89 47.51 C198.37,46.83 191.56,44.83 184.36,42.65 C177.57,40.59 172.90,39.19 169.37,38.36 C172.90,39.19 177.57,40.58 184.36,42.64 C189.14,44.08 195.26,45.89 200.89,47.51 Z" fill="rgb(11,165,225)"/>
<path d="M 94.39 112.47 C93.89,115.13 97.53,131.74 100.96,142.05 C104.36,152.27 108.16,161.21 112.66,169.29 C111.52,167.38 110.30,165.43 109.38,164.05 C107.80,161.67 105.71,158.21 104.74,156.36 C103.66,154.30 102.23,153.00 101.04,153.00 C99.17,153.00 98.66,154.36 97.67,162.00 C97.57,162.82 96.54,163.64 95.38,163.80 C93.85,164.02 92.95,163.29 92.02,161.05 C91.33,159.37 90.36,158.00 89.88,158.00 C89.40,158.00 89.00,156.85 89.00,155.43 C89.00,154.02 88.49,151.92 87.87,150.76 C87.25,149.60 85.68,142.45 84.37,134.87 C82.24,122.48 82.04,118.72 82.34,97.45 L 82.67 73.82 L 79.86 69.66 C76.67,64.95 76.34,63.19 78.49,62.36 C79.32,62.05 79.79,61.46 79.54,61.06 C79.29,60.66 79.63,60.30 80.29,60.26 C81.60,60.18 92.14,57.32 105.25,53.58 C105.28,53.64 105.32,53.71 105.36,53.78 C105.73,54.37 105.58,55.14 105.02,55.49 C104.46,55.84 104.00,57.17 104.00,58.45 C104.00,59.74 103.32,61.05 102.50,61.36 C101.56,61.72 101.00,63.25 101.00,65.45 C101.00,68.39 101.42,69.07 103.57,69.61 C107.06,70.48 113.19,69.54 127.19,65.99 C144.64,61.57 146.50,61.82 150.93,69.25 C152.16,71.31 153.57,73.00 154.08,73.00 C154.58,73.00 156.34,74.87 158.00,77.15 C159.75,79.58 165.27,84.20 171.25,88.25 C176.89,92.07 181.65,95.61 181.84,96.11 C182.02,96.60 182.59,96.75 183.10,96.44 C183.61,96.12 183.77,95.44 183.45,94.92 C183.09,94.34 185.50,94.21 189.68,94.58 C197.46,95.27 198.08,94.95 213.50,82.46 C217.90,78.90 223.41,75.10 225.74,74.03 C228.99,72.54 230.52,70.98 232.24,67.41 L 234.50 62.75 L 232.00 61.14 C230.62,60.25 228.32,58.29 226.88,56.79 C225.38,55.23 223.05,54.04 218.06,52.45 C223.29,53.93 228.43,55.39 231.00,56.14 C234.57,57.17 238.73,58.29 240.23,58.63 C241.74,58.97 242.74,59.61 242.47,60.05 C242.19,60.50 242.42,61.14 242.98,61.49 C244.76,62.59 244.09,65.14 241.49,67.19 C240.11,68.27 239.23,69.56 239.53,70.05 C239.84,70.54 237.54,72.87 234.44,75.22 C231.34,77.58 224.81,82.76 219.93,86.75 C215.06,90.74 210.60,94.00 210.03,94.00 C209.47,94.00 209.00,94.36 209.00,94.79 C209.00,95.23 206.64,97.34 203.75,99.48 C200.86,101.62 197.19,104.53 195.60,105.94 C193.80,107.52 192.90,107.90 193.24,106.94 C193.68,105.70 192.86,105.85 189.27,107.67 C186.78,108.93 184.40,109.75 183.98,109.49 C183.57,109.23 179.26,111.09 174.42,113.63 C167.24,117.38 165.28,118.03 163.82,117.12 C161.35,115.58 159.93,115.72 158.53,117.63 C157.47,119.08 156.80,118.87 152.18,115.63 C149.34,113.63 146.45,111.99 145.76,111.97 C143.71,111.92 141.43,109.74 139.50,106.00 C138.51,104.07 134.90,99.57 131.47,96.00 C128.05,92.43 124.17,87.47 122.85,85.00 C117.03,74.12 113.55,70.65 109.35,71.52 C105.43,72.34 93.41,75.15 91.61,75.67 C89.87,76.18 89.78,76.97 90.40,86.36 C91.44,102.13 93.16,114.35 94.13,112.83 C94.22,112.69 94.31,112.56 94.39,112.47 ZM 105.86 53.41 C107.61,52.91 109.40,52.40 111.22,51.88 C109.83,52.36 108.70,52.85 108.29,53.18 C107.63,53.73 106.55,53.84 105.89,53.43 ZM 140.96 203.47 C141.01,203.51 141.06,203.55 141.11,203.60 C141.92,204.30 142.77,205.01 143.64,205.72 C148.49,209.87 153.20,213.47 156.76,215.62 C152.01,212.75 146.48,208.44 140.96,203.47 ZM 115.47 50.65 C122.78,48.53 130.33,46.31 137.18,44.25 C137.07,44.30 136.97,44.34 136.87,44.38 C128.42,46.93 119.75,49.48 115.47,50.65 ZM 142.61 42.61 C146.65,41.38 150.31,40.25 153.34,39.28 C157.68,37.89 160.21,37.17 163.71,37.40 C160.21,37.17 157.68,37.90 153.34,39.29 C150.81,40.11 147.51,41.14 143.90,42.24 C143.44,42.38 143.01,42.50 142.61,42.61 ZM 116.88 176.43 C117.48,177.31 118.13,178.24 118.82,179.20 C119.23,179.79 119.64,180.38 120.06,180.96 C118.89,179.40 117.83,177.88 116.88,176.43 ZM 95.00 112.57 C95.21,113.07 97.51,113.42 100.51,113.41 C97.44,113.42 95.00,113.06 95.00,112.58 Z" fill="rgb(14,131,212)"/>
<path d="M 94.39 112.47 C94.31,112.56 94.22,112.69 94.13,112.83 C93.16,114.35 91.44,102.13 90.40,86.36 C89.78,76.97 89.87,76.18 91.61,75.67 C93.41,75.15 105.43,72.34 109.35,71.52 C113.55,70.65 117.03,74.12 122.85,85.00 C124.17,87.47 128.05,92.43 131.47,96.00 C134.90,99.57 138.51,104.07 139.50,106.00 C141.43,109.74 143.71,111.92 145.76,111.97 C146.45,111.99 149.34,113.63 152.18,115.63 C156.80,118.87 157.47,119.08 158.53,117.63 C159.93,115.72 161.35,115.58 163.82,117.12 C165.28,118.03 167.24,117.38 174.42,113.63 C179.26,111.09 183.57,109.23 183.98,109.49 C184.40,109.75 186.78,108.93 189.27,107.67 C192.86,105.85 193.68,105.70 193.24,106.94 C193.06,107.45 193.23,107.58 193.68,107.36 C185.15,114.07 174.10,122.86 168.95,127.06 C162.99,131.93 159.07,131.82 149.49,126.52 C145.65,124.39 137.77,120.23 132.00,117.27 C127.75,115.10 125.11,113.81 123.05,113.07 C126.56,113.99 130.00,115.27 130.00,115.90 C130.00,116.27 130.99,116.65 132.21,116.74 C133.65,116.85 132.63,115.89 129.24,113.95 C126.40,112.33 123.59,111.00 122.99,111.00 C122.40,111.00 120.66,110.07 119.13,108.94 C115.70,106.40 111.86,107.09 108.97,110.77 C107.24,112.96 106.14,113.33 100.98,113.41 C100.82,113.41 100.67,113.41 100.51,113.41 C97.51,113.42 95.21,113.07 95.00,112.57 C95.00,112.08 94.78,111.89 94.52,112.15 C94.46,112.21 94.42,112.31 94.39,112.47 ZM 79.94 60.32 C79.52,60.44 79.34,60.74 79.54,61.06 C79.79,61.46 79.32,62.05 78.49,62.36 C76.34,63.19 76.67,64.95 79.86,69.66 L 82.67 73.82 L 82.34 97.45 C82.04,118.72 82.24,122.48 84.37,134.87 C85.68,142.45 87.25,149.60 87.87,150.76 C88.49,151.92 89.00,154.02 89.00,155.43 C89.00,156.85 89.40,158.00 89.88,158.00 C90.36,158.00 91.33,159.37 92.02,161.05 C92.95,163.29 93.85,164.02 95.38,163.80 C96.54,163.64 97.57,162.82 97.67,162.00 C97.80,161.00 97.92,160.11 98.04,159.31 C98.02,159.64 98.02,159.99 98.01,160.34 C98.00,162.29 97.40,163.34 96.11,163.68 C95.00,163.97 93.97,165.39 93.63,167.09 C92.66,171.96 90.19,170.61 86.98,163.45 C82.93,154.44 77.51,136.57 75.06,124.20 C72.54,111.44 70.01,85.74 70.00,72.78 L 70.00 63.06 L 75.25 61.60 C76.14,61.36 77.78,60.91 79.94,60.32 ZM 230.54 78.25 C232.08,77.03 233.44,75.98 234.44,75.22 C237.54,72.87 239.84,70.54 239.53,70.05 C239.23,69.56 240.11,68.27 241.49,67.19 C244.09,65.14 244.76,62.59 242.98,61.49 C242.42,61.14 242.19,60.50 242.47,60.05 C242.61,59.82 242.40,59.52 241.94,59.25 C245.80,60.40 248.88,61.48 249.22,61.82 C249.93,62.53 240.39,70.97 231.50,77.53 C231.23,77.73 230.91,77.97 230.54,78.25 ZM 105.20 53.47 C105.22,53.51 105.23,53.54 105.25,53.58 C92.14,57.32 81.60,60.18 80.29,60.26 C80.19,60.27 80.09,60.28 80.00,60.30 C84.86,58.98 92.29,56.97 99.50,55.02 C101.39,54.51 103.29,54.00 105.20,53.47 ZM 104.89 116.56 C104.95,116.46 105.01,116.36 105.08,116.25 C106.49,113.99 112.03,112.00 116.93,112.00 C117.49,112.00 118.21,112.07 119.02,112.20 C118.10,112.15 117.14,112.18 115.98,112.25 C111.94,112.50 106.76,114.68 104.89,116.56 ZM 104.95 118.92 C107.59,121.69 117.22,131.27 129.07,142.91 C128.54,142.41 128.07,141.97 127.66,141.59 C118.74,132.84 111.28,125.53 109.15,123.47 C106.84,121.23 105.55,119.90 104.95,118.92 ZM 162.11 175.45 L 155.85 169.29 L 148.11 161.57 L 162.19 175.37 ZM 115.47 50.65 C114.90,50.81 114.40,50.94 114.00,51.04 C113.05,51.29 112.08,51.58 111.22,51.88 C109.40,52.40 107.61,52.91 105.86,53.41 C105.81,53.38 105.76,53.36 105.72,53.33 C110.74,51.95 115.78,50.54 120.74,49.12 C118.98,49.63 117.22,50.14 115.47,50.65 ZM 196.66 105.03 C198.51,103.49 201.39,101.23 203.75,99.48 C206.51,97.43 208.80,95.41 208.99,94.86 C208.80,95.42 206.51,97.46 203.75,99.54 C202.31,100.63 199.77,102.60 196.66,105.03 ZM 210.06 94.00 C209.48,94.00 209.00,94.36 209.00,94.79 C209.00,94.36 209.47,94.00 210.03,94.00 C210.51,94.00 213.73,91.70 217.64,88.60 C213.82,91.67 210.57,94.00 210.06,94.00 ZM 184.36 42.63 C187.27,43.51 190.39,44.44 193.37,45.32 C190.16,44.38 187.05,43.45 184.36,42.64 C177.57,40.58 172.90,39.19 169.37,38.36 C168.70,38.20 168.07,38.06 167.47,37.94 C171.21,38.68 176.27,40.19 184.36,42.63 ZM 99.05 154.57 C99.42,153.60 99.87,153.19 100.49,153.05 C99.94,153.27 99.44,153.78 99.05,154.57 ZM 224.09 54.16 C222.20,53.62 220.13,53.04 218.06,52.45 C217.79,52.36 217.51,52.27 217.22,52.19 C218.93,52.67 220.57,53.15 222.00,53.56 C222.64,53.74 223.34,53.94 224.09,54.16 ZM 233.62 56.88 C232.74,56.64 231.85,56.38 231.00,56.14 L 230.85 56.09 C231.78,56.36 232.71,56.62 233.62,56.88 Z" fill="rgb(15,100,198)"/>
<path d="M 140.96 203.47 C142.13,204.52 143.29,205.53 144.44,206.51 C140.84,203.53 137.00,200.13 133.25,196.59 C130.91,194.39 129.00,192.99 129.00,193.49 C129.00,193.99 127.46,192.90 125.59,191.08 C121.97,187.58 119.67,187.68 120.48,191.31 C121.53,196.00 121.76,201.78 120.95,203.08 C120.28,204.17 119.55,203.95 117.39,201.97 C115.90,200.61 115.03,200.11 115.46,200.85 C116.11,201.97 115.84,201.98 113.87,200.91 C112.57,200.20 110.67,199.56 109.67,199.47 C107.28,199.28 104.32,195.55 97.80,184.53 C94.37,178.73 91.24,172.67 88.43,166.39 C90.93,170.88 92.81,171.20 93.63,167.09 C93.97,165.39 95.00,163.97 96.11,163.68 C97.40,163.34 98.00,162.29 98.01,160.34 C98.02,159.99 98.02,159.64 98.04,159.31 C98.38,157.02 98.68,155.53 99.05,154.57 C99.44,153.78 99.94,153.27 100.49,153.05 C100.66,153.02 100.84,153.00 101.04,153.00 C102.23,153.00 103.66,154.30 104.74,156.36 C105.71,158.21 107.80,161.67 109.38,164.05 C110.30,165.43 111.52,167.38 112.66,169.29 C113.09,170.05 113.52,170.81 113.96,171.57 C114.62,172.90 115.62,174.56 116.88,176.43 L 116.88 176.43 C117.83,177.88 118.89,179.40 120.06,180.96 C124.23,186.75 128.91,192.13 134.26,197.33 C135.95,199.02 137.59,200.56 139.13,201.86 L 139.16 201.89 C139.76,202.42 140.36,202.95 140.96,203.47 ZM 81.65 149.02 C78.94,140.97 76.74,132.66 75.06,124.20 C76.51,131.54 79.01,140.81 81.65,149.02 ZM 155.98 215.13 C156.20,215.27 156.43,215.41 156.65,215.55 C156.43,215.42 156.21,215.28 155.98,215.13 Z" fill="rgb(17,147,157)"/>
<path d="M 184.38 152.15 L 184.38 152.15 C183.98,152.55 183.56,152.98 183.11,153.42 C182.91,153.63 182.70,153.84 182.48,154.06 C180.08,156.51 177.79,158.89 175.11,161.72 L 175.10 161.72 L 175.02 161.81 C174.69,162.15 174.37,162.49 174.03,162.84 C180.64,155.70 192.08,143.30 203.27,131.15 C224.35,108.26 230.49,102.13 231.17,103.34 C231.71,104.30 231.44,106.51 230.45,109.19 C229.59,111.56 228.44,114.94 227.90,116.70 C227.37,118.47 225.71,120.82 224.22,121.93 C217.06,127.26 216.73,128.52 220.57,135.70 C222.72,139.72 223.02,141.23 222.41,145.00 C222.01,147.48 221.58,150.73 221.45,152.23 C221.20,154.97 213.37,170.44 208.91,176.98 C210.71,174.19 211.61,172.21 211.10,171.70 C210.66,171.26 206.89,170.81 202.73,170.70 C196.18,170.53 194.80,170.16 192.50,168.00 C191.04,166.62 189.54,165.62 189.17,165.77 C187.55,166.43 188.04,158.85 189.84,155.31 C192.24,150.62 192.88,146.82 191.36,146.30 C190.80,146.10 188.91,147.62 184.39,152.14 ZM 155.98 215.13 C156.21,215.28 156.43,215.42 156.65,215.55 L 156.73 215.59 L 156.76 215.62 L 156.83 215.66 C159.83,217.69 162.10,219.00 162.81,219.00 C162.88,219.00 163.17,218.88 163.62,218.68 L 162.50 219.25 L 155.75 217.22 C149.24,215.27 146.97,215.60 148.69,218.25 C149.14,218.94 149.55,221.89 149.61,224.80 C149.70,228.93 150.27,230.70 152.17,232.80 C153.52,234.29 155.15,236.74 155.79,238.25 C156.43,239.76 156.85,240.97 156.73,240.94 C154.31,240.26 150.33,237.83 141.86,231.81 C128.51,222.34 116.90,211.05 107.16,198.13 C108.11,199.00 108.92,199.41 109.67,199.47 C110.67,199.56 112.57,200.20 113.87,200.91 C115.84,201.98 116.11,201.97 115.46,200.85 C115.03,200.11 115.90,200.61 117.39,201.97 C119.55,203.95 120.28,204.17 120.95,203.08 C121.76,201.78 121.53,196.00 120.48,191.31 C119.67,187.68 121.97,187.58 125.59,191.08 C127.46,192.90 129.00,193.99 129.00,193.49 C129.00,192.99 130.91,194.39 133.25,196.59 C137.00,200.13 140.84,203.53 144.44,206.51 C148.47,209.93 152.42,212.91 155.98,215.13 ZM 179.78 208.60 C182.72,206.19 185.98,203.25 189.86,199.54 C193.13,196.42 196.58,192.69 199.74,188.99 C193.44,196.42 186.44,203.29 179.78,208.60 ZM 82.39 151.29 C80.30,145.30 78.49,139.11 76.94,132.73 C78.29,138.25 79.86,143.69 81.65,149.02 C81.90,149.79 82.15,150.55 82.39,151.29 ZM 90.27 170.37 C89.61,168.99 88.96,167.60 88.32,166.19 C88.36,166.26 88.40,166.33 88.43,166.39 C89.03,167.73 89.64,169.05 90.27,170.37 Z" fill="rgb(20,152,108)"/>
<path d="M 218.04 160.59 C219.95,156.65 221.35,153.36 221.45,152.23 C221.58,150.73 222.01,147.48 222.41,145.00 C223.02,141.23 222.72,139.72 220.57,135.70 C216.73,128.52 217.06,127.26 224.22,121.93 C225.71,120.82 227.37,118.47 227.90,116.70 C228.44,114.94 229.59,111.56 230.45,109.19 C231.44,106.51 231.71,104.30 231.17,103.34 C230.49,102.13 224.35,108.26 203.27,131.15 C192.08,143.30 180.64,155.70 174.03,162.84 C173.84,163.04 173.65,163.25 173.46,163.45 C179.22,157.21 188.79,146.81 197.81,137.00 C209.68,124.07 222.57,110.10 226.45,105.94 C230.33,101.78 238.40,93.10 244.40,86.64 C251.53,78.94 255.63,75.23 256.27,75.87 C256.92,76.52 256.85,81.80 256.09,91.17 C254.26,113.64 251.82,127.06 246.33,144.75 C244.31,151.25 243.37,153.00 241.88,153.00 C239.62,153.00 239.62,152.96 241.54,141.00 C244.20,124.51 245.02,111.07 243.72,105.25 C242.69,100.65 240.83,98.50 239.83,100.75 C239.65,101.16 238.15,102.25 236.50,103.18 C233.71,104.73 233.38,105.56 231.82,114.68 C230.26,123.80 229.01,128.94 224.19,146.09 C223.33,149.17 220.89,154.79 218.04,160.59 ZM 179.78 208.60 C180.74,207.83 181.71,207.03 182.69,206.20 C180.98,207.68 179.25,209.12 177.50,210.51 C169.85,216.60 169.17,217.73 172.45,218.98 C174.27,219.67 175.00,220.69 175.00,222.51 C175.00,225.14 178.46,227.42 180.50,226.14 C182.05,225.17 189.93,223.26 190.41,223.74 C191.52,224.85 183.51,232.59 178.19,235.55 C176.16,236.68 172.27,239.04 169.55,240.80 C166.83,242.56 164.13,243.96 163.55,243.91 C162.35,243.82 159.66,242.63 156.25,240.79 C156.42,240.85 156.58,240.89 156.73,240.94 C156.85,240.97 156.43,239.76 155.79,238.25 C155.15,236.74 153.52,234.29 152.17,232.80 C150.27,230.70 149.70,228.93 149.61,224.80 C149.55,221.89 149.14,218.94 148.69,218.25 C146.97,215.60 149.24,215.27 155.75,217.22 L 162.50 219.25 L 163.62 218.68 C164.63,218.22 166.42,217.32 168.36,216.30 C172.15,214.31 175.66,211.97 179.78,208.60 ZM 141.14 231.30 C128.13,222.05 116.73,210.89 107.12,198.09 C107.13,198.10 107.14,198.11 107.16,198.13 C116.73,210.82 128.09,221.93 141.14,231.30 ZM 208.77 177.20 C208.82,177.13 208.86,177.06 208.91,176.98 C210.52,174.62 212.57,171.08 214.55,167.41 C212.52,171.20 210.51,174.65 208.90,177.01 C208.86,177.07 208.81,177.14 208.77,177.20 Z" fill="rgb(38,180,83)"/>
<path d="M 221.51 153.12 C222.76,150.27 223.71,147.79 224.19,146.09 C229.01,128.94 230.26,123.80 231.82,114.68 C233.38,105.56 233.71,104.73 236.50,103.18 C238.15,102.25 239.65,101.16 239.83,100.75 C240.83,98.50 242.69,100.65 243.72,105.25 C245.02,111.07 244.20,124.51 241.54,141.00 C239.62,152.96 239.62,153.00 241.88,153.00 C243.21,153.00 244.11,151.60 245.73,146.62 C240.02,164.89 233.04,180.27 229.16,180.83 C227.04,181.13 226.92,180.89 227.52,177.33 C227.88,175.22 228.56,172.15 229.04,170.50 C229.91,167.49 230.38,162.65 231.56,145.01 C232.17,135.83 232.13,135.57 230.34,137.20 C228.64,138.75 227.94,139.88 221.51,153.12 ZM 175.71 237.00 C175.70,237.00 175.69,237.00 175.68,237.00 C176.65,236.43 177.52,235.92 178.19,235.55 C183.51,232.59 191.52,224.85 190.41,223.74 C189.93,223.26 182.05,225.17 180.50,226.14 C178.46,227.42 175.00,225.14 175.00,222.51 C175.00,220.69 174.27,219.67 172.45,218.98 C169.17,217.73 169.85,216.60 177.50,210.51 C179.25,209.12 180.98,207.68 182.69,206.20 C188.45,201.29 194.35,195.34 199.74,188.99 C201.14,187.34 202.49,185.69 203.74,184.11 C202.82,185.36 201.83,186.68 200.75,188.10 C197.59,192.27 195.00,196.60 195.00,197.72 C195.00,198.88 196.51,200.92 198.49,202.42 C201.75,204.91 202.24,205.01 206.05,203.87 C208.29,203.20 210.56,201.83 211.09,200.82 C211.63,199.82 212.73,199.00 213.54,199.00 C215.65,199.00 215.33,202.39 213.02,204.48 C211.94,205.46 211.24,206.58 211.47,206.96 C212.29,208.28 187.90,231.00 185.66,231.00 C185.35,231.00 183.10,232.35 180.66,234.00 C178.21,235.65 175.98,237.00 175.71,237.00 ZM 253.16 116.43 C254.36,109.13 255.26,101.23 256.05,91.71 C255.46,99.29 254.49,108.18 253.40,114.98 C253.32,115.46 253.24,115.94 253.16,116.43 ZM 169.34 240.94 C166.71,242.65 164.23,243.96 163.65,243.91 L 163.63 243.91 C164.33,243.85 166.80,242.56 169.34,240.94 Z" fill="rgb(66,194,79)"/>
<path d="M 218.04 160.59 C219.31,158.00 220.51,155.43 221.51,153.12 C227.94,139.88 228.64,138.75 230.34,137.20 C232.13,135.57 232.17,135.83 231.56,145.01 C230.38,162.65 229.91,167.49 229.04,170.50 C228.56,172.15 227.88,175.22 227.52,177.33 C226.92,180.89 227.04,181.13 229.16,180.83 C230.32,180.66 231.76,179.17 233.36,176.66 C230.36,182.46 227.12,187.92 223.67,192.97 C220.94,196.95 215.73,203.05 210.09,209.10 C211.08,207.95 211.61,207.17 211.47,206.96 C211.24,206.58 211.94,205.46 213.02,204.48 C215.33,202.39 215.65,199.00 213.54,199.00 C212.73,199.00 211.63,199.82 211.09,200.82 C210.56,201.83 208.29,203.20 206.05,203.87 C202.24,205.01 201.75,204.91 198.49,202.42 C196.51,200.92 195.00,198.88 195.00,197.72 C195.00,196.60 197.59,192.27 200.75,188.10 C201.83,186.68 202.82,185.36 203.74,184.11 C205.73,181.57 207.47,179.19 208.77,177.20 C208.81,177.14 208.86,177.07 208.90,177.01 C210.51,174.65 212.52,171.21 214.55,167.41 L 214.55 167.41 C215.79,165.11 216.99,162.75 218.04,160.59 ZM 190.60 227.55 C194.71,224.15 200.51,218.84 204.96,214.45 C200.01,219.50 195.18,224.02 191.83,226.62 C191.41,226.94 191.00,227.25 190.60,227.55 ZM 244.28 151.12 C244.77,149.65 245.26,148.14 245.73,146.62 C245.92,146.04 246.12,145.42 246.33,144.75 C247.89,139.72 249.20,135.03 250.33,130.39 C248.65,137.44 246.62,144.39 244.28,151.12 ZM 253.16 116.43 C253.24,115.94 253.32,115.46 253.40,114.98 C253.29,115.64 253.18,116.29 253.07,116.94 C253.10,116.77 253.13,116.60 253.16,116.43 Z" fill="rgb(100,206,74)"/>
<path d="M 175.71 237.00 C175.98,237.00 178.21,235.65 180.66,234.00 C180.91,233.83 181.17,233.66 181.41,233.49 C178.50,235.45 174.99,238.01 173.92,239.08 C170.88,242.12 173.30,244.00 180.30,244.02 C189.26,244.05 202.90,246.47 204.80,248.37 C207.22,250.80 205.20,252.15 196.76,253.74 C192.46,254.55 179.73,255.28 165.50,255.53 C140.21,255.97 130.90,255.07 124.01,251.50 C120.85,249.87 120.74,249.66 122.44,248.42 C124.93,246.60 133.62,244.90 144.36,244.14 C155.93,243.31 156.58,242.34 145.30,234.23 C151.01,238.19 154.18,240.08 156.25,240.79 C159.66,242.63 162.35,243.82 163.55,243.91 C163.58,243.92 163.60,243.92 163.63,243.91 L 163.65 243.91 C164.23,243.96 166.71,242.65 169.34,240.94 C169.41,240.89 169.48,240.85 169.55,240.80 C171.38,239.62 173.72,238.17 175.68,237.00 C175.69,237.00 175.70,237.00 175.71,237.00 ZM 92.25 174.40 C90.82,171.61 89.45,168.77 88.15,165.88 C88.21,165.98 88.27,166.09 88.32,166.19 C88.96,167.60 89.61,168.99 90.27,170.37 L 90.27 170.37 C90.92,171.72 91.58,173.07 92.25,174.40 ZM 82.39 151.29 C82.52,151.67 82.64,152.03 82.76,152.40 C80.39,145.70 78.35,138.74 76.66,131.54 C76.75,131.93 76.85,132.33 76.94,132.73 C78.49,139.11 80.30,145.30 82.39,151.29 Z" fill="rgb(224,235,236)"/>
<path d="M 0.00 139.50 L 0.00 0.00 L 147.50 0.00 L 295.00 0.00 L 295.00 139.50 L 295.00 279.00 L 147.50 279.00 L 0.00 279.00 L 0.00 139.50 ZM 196.76 253.74 C205.20,252.15 207.22,250.80 204.80,248.37 C202.90,246.47 189.26,244.05 180.30,244.02 C173.30,244.00 170.88,242.12 173.92,239.08 C175.75,237.25 184.80,231.00 185.63,231.00 C185.92,231.00 188.71,229.03 191.83,226.62 C200.22,220.13 217.77,201.59 223.67,192.97 C238.00,172.02 248.76,143.78 253.40,114.98 C255.71,100.63 257.44,77.04 256.27,75.87 C255.63,75.23 251.53,78.94 244.40,86.64 C238.40,93.10 230.33,101.78 226.45,105.94 C222.57,110.10 209.68,124.07 197.81,137.00 C185.93,149.93 173.09,163.87 169.26,167.99 L 162.29 175.47 L 133.40 147.16 C117.50,131.58 104.38,118.52 104.23,118.12 C103.51,116.18 110.72,112.58 115.98,112.25 C121.01,111.94 122.43,112.38 132.00,117.27 C137.77,120.23 145.65,124.39 149.49,126.52 C159.07,131.82 162.99,131.93 168.95,127.06 C176.77,120.67 198.26,103.68 203.75,99.54 C206.64,97.37 209.00,95.23 209.00,94.79 C209.00,94.36 209.48,94.00 210.06,94.00 C210.64,94.00 214.80,90.96 219.31,87.24 C223.81,83.52 229.30,79.15 231.50,77.53 C240.39,70.97 249.93,62.53 249.22,61.82 C248.81,61.41 244.43,59.93 239.49,58.54 C234.54,57.15 226.68,54.91 222.00,53.56 C217.32,52.21 210.35,50.22 206.50,49.15 C202.65,48.07 192.69,45.14 184.36,42.63 C163.63,36.37 162.74,36.28 153.34,39.29 C138.69,44.00 118.55,49.88 99.50,55.02 C89.05,57.84 78.14,60.80 75.25,61.60 L 70.00 63.06 L 70.00 72.78 C70.01,85.76 72.54,111.46 75.07,124.20 C84.29,170.66 107.21,207.34 142.66,232.35 C156.61,242.20 156.77,243.25 144.36,244.14 C133.62,244.90 124.93,246.60 122.44,248.42 C120.74,249.66 120.85,249.87 124.01,251.50 C130.90,255.07 140.21,255.97 165.50,255.53 C179.73,255.28 192.46,254.55 196.76,253.74 Z" fill="rgb(251,252,252)"/>
</g>
</svg>